<?xml version="1.0" standalone="no"?>
<!DOCTYPE svg PUBLIC "-//W3C//DTD SVG 20010904//EN"
 "http://www.w3.org/TR/2001/REC-SVG-20010904/DTD/svg10.dtd">
<svg version="1.0" xmlns="http://www.w3.org/2000/svg"
 width="247.000000pt" height="238.000000pt" viewBox="0 0 247.000000 238.000000"
 preserveAspectRatio="xMidYMid meet">

<g transform="translate(0.000000,238.000000) scale(0.100000,-0.100000)"
 stroke="none">
<path d="M0 1190 l0 -1190 1235 0 1235 0 0 1190 0 1190 -137 -1 c-126 0 -135
-1 -98 -13 96 -30 154 -80 194 -166 23 -50 26 -67 26 -175 -1 -241 -79 -454
-404 -1105 -209 -419 -475 -902 -496 -902 -5 -1 -77 106 -161 236 -83 131
-154 238 -158 239 -3 1 -75 -106 -159 -238 -85 -132 -158 -240 -163 -239 -28
3 -403 701 -609 1134 -145 304 -223 495 -261 640 -23 86 -28 127 -28 230 -1
110 2 131 22 175 39 85 105 142 197 171 37 12 28 13 -97 13 l-138 1 0 -1190z"/>
<path d="M600 2360 c114 -25 219 -62 439 -155 102 -43 189 -78 195 -78 6 0
108 41 227 91 216 90 302 120 420 146 57 12 -15 14 -651 14 l-715 1 85 -19z"/>
<path d="M258 2316 c-150 -40 -214 -167 -188 -370 30 -227 115 -439 426 -1056
174 -346 406 -775 419 -775 14 0 278 420 281 445 1 14 29 67 62 118 l60 93
112 -176 c62 -96 114 -175 115 -175 7 0 170 309 289 543 310 617 406 865 410
1058 2 129 -36 155 -203 146 -124 -7 -218 -32 -419 -113 l-163 -66 -107 46
c-59 25 -118 46 -132 46 -14 0 -106 34 -205 76 -99 42 -218 89 -265 105 -182
63 -381 85 -492 55z m996 -297 c66 -27 124 -53 129 -56 5 -3 -136 -68 -313
-144 -177 -76 -324 -140 -326 -142 -2 -2 118 -193 266 -425 149 -232 270 -427
270 -433 0 -16 -114 -189 -122 -186 -9 3 -728 1124 -728 1136 0 4 28 19 63 34
34 14 186 80 337 146 151 66 282 120 290 120 8 1 69 -22 134 -50z m544 -139
c133 -58 242 -108 242 -112 0 -4 -143 -231 -317 -504 -280 -437 -319 -493
-330 -478 -7 10 -13 24 -13 31 0 7 129 214 287 460 157 246 286 454 287 461 1
8 -89 52 -229 114 -126 55 -232 101 -233 103 -5 5 51 35 59 32 3 -1 115 -49
247 -107z"/>
</g>
</svg>
